<?xml version="1.0" encoding="UTF-8" standalone="no"?>
<svg
   width="500"
   height="500"
   viewBox="0 0 132.29167 132.29167"
   version="1.1"
   id="svg1"
   xml:space="preserve"
   xmlns="http://www.w3.org/2000/svg"
   xmlns:svg="http://www.w3.org/2000/svg"><style>
        path {
            fill: black;
        }
        @media (prefers-color-scheme: dark) {
            path { fill: white; }
        }
    </style>
    <defs
     id="defs1" />
     <g
     id="layer1"
     transform="translate(-42.321426,-83.941666)"><path
       d="m 111.08416,214.09279 c 2.39164,-0.30771 4.76322,-1.13328 6.39475,-2.22607 0.73546,-0.49261 2.70885,-2.23965 4.38533,-3.88232 3.13761,-3.07436 4.7977,-4.18691 7.66749,-5.13856 1.34014,-0.4444 3.0244,-0.49347 21.29896,-0.62055 l 19.84375,-0.13798 0.0789,-1.50597 c 0.0691,-1.31826 -0.28345,-7.54299 -1.92411,-33.97651 -0.91339,-14.71616 -1.23269,-19.36101 -1.40767,-20.4769 l -0.18669,-1.19063 -4.07259,-0.0732 -4.07259,-0.0732 0.16768,1.39616 c 0.0922,0.76789 0.16872,2.1403 0.16999,3.0498 l 0.002,1.65365 h 1.06663 c 0.62534,0 1.10666,0.13683 1.16336,0.33073 0.0532,0.1819 0.23421,3.42635 0.40226,7.2099 0.16805,3.78354 0.48121,9.6176 0.69592,12.96458 0.69077,10.76812 1.16635,19.78347 1.16807,22.14247 l 0.002,2.29872 -16.33802,0.0954 c -15.7147,0.0918 -16.41521,0.11694 -18.36114,0.66001 -4.94318,1.37955 -7.75043,3.05791 -12.45678,7.44751 -3.81234,3.55575 -4.49177,3.8684 -8.40656,3.8684 -3.76335,0 -4.83834,-0.53332 -8.958379,-4.44444 -1.69202,-1.60621 -3.71593,-3.3295 -4.49759,-3.82952 -1.81653,-1.16202 -4.62268,-2.32379 -7.31383,-3.028 -2.01169,-0.52641 -2.92695,-0.55952 -18.45468,-0.66769 l -16.33802,-0.11382 -0.001,-0.96972 c -7.5e-4,-0.53335 0.23379,-5.25598 0.5212,-10.49473 0.57536,-10.48742 1.25253,-23.45159 1.47187,-28.17812 0.0777,-1.67349 0.20339,-3.54219 0.2794,-4.15266 0.13558,-1.08894 0.15923,-1.11148 1.24865,-1.19063 l 1.11044,-0.0807 v -2.91042 -2.91042 l -3.81568,-0.0737 c -2.09863,-0.0405 -3.92008,0.0307 -4.04766,0.15828 -0.2489,0.24889 -0.65185,5.86158 -1.52305,21.21436 -0.3014,5.31151 -0.66159,11.20511 -0.80042,13.09688 -0.83534,11.38293 -1.2927,22.03567 -0.9684,22.55573 0.16186,0.25956 4.26457,0.33073 19.066,0.33073 17.98315,0 18.95705,0.0246 20.95262,0.52897 3.66797,0.92708 5.46228,2.00792 9.22827,5.55887 3.83743,3.61832 6.087429,4.93042 9.720609,5.66862 2.21603,0.45026 3.10821,0.4681 5.8391,0.11673 z m 2.97939,-11.36909 c 2.15764,-2.21518 6.0052,-5.317 8.22618,-6.63177 7.23321,-4.28192 15.18054,-5.7765 30.72377,-5.77794 l 6.94531,-6.4e-4 -9.9e-4,-1.52136 c -5.5e-4,-0.83674 -0.23356,-6.7601 -0.5178,-13.16302 -0.28425,-6.40291 -0.58429,-13.4276 -0.66676,-15.61041 -0.43445,-11.49811 -1.4741,-29.60942 -1.71378,-29.85503 -0.2874,-0.2945 -7.00527,0.70763 -12.4465,1.8567 -4.25936,0.89948 -10.92244,2.93484 -13.36259,4.08185 -2.94116,1.38251 -3.44508,4.62158 -0.92199,5.92632 1.15929,0.59949 1.80729,0.49758 5.00323,-0.78685 4.99762,-2.00851 12.10087,-3.84487 14.87238,-3.84487 1.14058,0 1.18886,0.13929 1.259,3.63181 0.0582,2.89679 0.47336,12.86983 0.8126,19.51923 0.14106,2.7649 0.38034,8.12271 0.53173,11.90625 0.15139,3.78354 0.34026,7.96628 0.41972,9.29498 l 0.14446,2.41581 -6.82666,0.13492 c -5.72992,0.11324 -7.45242,0.24423 -10.72163,0.81534 -9.02864,1.57724 -16.0584,4.44608 -21.24945,8.6719 -1.40712,1.14547 -2.66534,2.08268 -2.79606,2.08268 -0.1387,0 -0.23766,-9.75846 -0.23766,-23.43627 v -23.43626 l 5.49011,-5.32718 c 5.03085,-4.88156 10.7512,-10.44646 17.69975,-17.21877 l 2.68465,-2.61656 1.2841,0.43885 c 5.40531,1.84727 10.60728,-0.39128 12.98666,-5.58851 0.93999,-2.05322 0.96913,-5.28151 0.0687,-7.61231 -0.72722,-1.88245 -2.91199,-4.21307 -4.80064,-5.12112 -3.9585,-1.90322 -8.8627,-1.13563 -11.8113,1.84867 -2.22837,2.25535 -3.30691,5.81911 -2.68486,8.87151 0.17291,0.8485 0.32955,1.81625 0.34809,2.15054 0.0261,0.47119 -2.31427,2.8893 -10.41326,10.75903 -5.74582,5.58318 -10.53809,10.09491 -10.64948,10.02606 -0.23562,-0.14562 -0.27348,-32.04126 -0.0397,-33.45441 0.1291,-0.78038 0.31764,-1.00711 1.06103,-1.27593 1.38706,-0.50156 3.85545,-2.94777 4.74242,-4.69979 0.71697,-1.416207 0.78061,-1.768443 0.78061,-4.320053 0,-2.46244 -0.0808,-2.95057 -0.71124,-4.29572 -0.8078,-1.72361 -2.82144,-3.87387 -4.34529,-4.64009 -4.88179,-2.45468 -11.036,-0.59081 -13.535909,4.09951 -2.66561,5.00119 -0.75741,11.201593 4.224209,13.725973 l 1.27135,0.64424 v 17.21551 c 0,10.31261 -0.0972,17.18014 -0.24236,17.12731 -0.1333,-0.0485 -4.90603,-4.66424 -10.606069,-10.25719 l -10.36371,-10.169 0.22117,-1.20809 c 0.12165,-0.66444 0.21968,-2.27964 0.21783,-3.58933 -0.003,-2.02607 -0.10952,-2.60889 -0.71517,-3.90743 -0.984,-2.10973 -3.11881,-4.18379 -5.11051,-4.96508 -1.24539,-0.48854 -2.11074,-0.62301 -4.09284,-0.63601 -2.29742,-0.0151 -2.66736,0.0564 -4.30237,0.83087 -2.26103,1.07102 -4.20111,3.03941 -5.00188,5.07484 -0.45155,1.1478 -0.58841,2.05967 -0.60114,4.00525 -0.0152,2.32923 0.0489,2.652 0.8515,4.28223 1.02689,2.08592 2.94702,3.94563 5.08514,4.92514 1.90916,0.87461 5.20777,0.96264 7.45178,0.19884 l 1.49866,-0.5101 3.44706,3.28823 c 1.89588,1.80852 7.67408,7.39588 12.84044,12.41635 l 9.393389,9.12812 0.0145,23.74636 c 0.008,13.06049 -0.0644,23.74635 -0.16078,23.74635 -0.0964,0 -1.01916,-0.69285 -2.05052,-1.53966 -4.280999,-3.51499 -5.784219,-4.42644 -10.289709,-6.23904 -3.28527,-1.3217 -7.34416,-2.41412 -11.9584,-3.21852 -3.28212,-0.57217 -5.1017,-0.71695 -10.51719,-0.83685 -6.44366,-0.14266 -6.54839,-0.15392 -6.54549,-0.70389 0.004,-0.75843 0.96623,-23.63417 1.32562,-31.51516 0.15926,-3.49251 0.37198,-8.25501 0.47269,-10.58334 l 0.18312,-4.23333 1.19062,0.0892 c 3.52436,0.26418 10.77051,2.21267 15.5293,4.17583 2.41246,0.99522 3.48249,1.1049 4.46958,0.45814 2.11066,-1.38296 1.7544,-4.02425 -0.73996,-5.48604 -3.97478,-2.32938 -16.98671,-5.65754 -24.01018,-6.14127 l -2.58014,-0.17771 -0.17419,2.74715 c -0.17558,2.76916 -0.71545,15.06608 -1.22993,28.01487 -0.15322,3.8563 -0.49845,11.89036 -0.76719,17.85347 -0.26874,5.9631 -0.43615,10.97873 -0.37202,11.14585 0.0833,0.21711 2.81178,0.34457 9.55972,0.44655 9.7794,0.1478 12.64362,0.39548 17.38064,1.50292 4.58903,1.07286 8.79342,2.83168 12.03854,5.03609 0.80036,0.54369 2.96899,2.3731 4.819169,4.06536 l 3.36396,3.07684 h 4.31891 4.31889 z m 26.11238,-84.5198 c -1.74405,-1.04076 -2.40076,-3.39108 -1.43867,-5.14889 0.61276,-1.11955 2.23717,-2.10637 3.47708,-2.11231 1.40554,-0.007 3.01003,0.90289 3.67285,2.08221 1.08327,1.92742 0.52633,4.04068 -1.37247,5.20771 -0.89618,0.55081 -1.31902,0.64722 -2.35441,0.53685 -0.69413,-0.074 -1.5871,-0.3285 -1.98438,-0.56557 z m -67.524209,0.0766 c -2.08107,-1.06337 -2.86083,-2.95568 -1.98151,-4.80871 1.43994,-3.03444 5.58113,-3.38632 7.2692,-0.61766 0.90063,1.47715 0.58178,3.93037 -0.64293,4.94679 -0.51761,0.42958 -2.22764,1.04793 -2.94046,1.06328 -0.29658,0.006 -1.06352,-0.25627 -1.7043,-0.5837 z M 106.48312,99.271933 c -0.2347,-0.1208 -0.81319,-0.6598 -1.28553,-1.197766 -0.79975,-0.91086 -0.85114,-1.08414 -0.74727,-2.52002 0.0846,-1.1698 0.26715,-1.70848 0.75637,-2.23213 2.52822,-2.70615 6.84349,-1.54249 7.31496,1.97255 0.1407,1.04898 -0.53686,2.77445 -1.35662,3.454786 -1.13619,0.94296 -3.37886,1.19328 -4.68191,0.52258 z"
       id="path1" /></g></svg>
